<svg xmlns="http://www.w3.org/2000/svg" viewBox="0 0 1024 1536">
<path d="M 456 1110 L 456 1113 L 457 1114 L 457 1122 L 458 1123 L 458 1126 L 459 1127 L 459 1130 L 460 1131 L 460 1132 L 461 1133 L 461 1135 L 462 1136 L 462 1137 L 463 1138 L 463 1140 L 464 1141 L 464 1142 L 465 1143 L 465 1144 L 466 1145 L 466 1146 L 468 1148 L 468 1149 L 469 1150 L 469 1151 L 470 1152 L 470 1153 L 473 1156 L 473 1157 L 476 1160 L 476 1161 L 480 1165 L 480 1166 L 493 1179 L 494 1179 L 500 1185 L 501 1185 L 504 1188 L 505 1188 L 507 1190 L 508 1190 L 510 1192 L 511 1192 L 514 1195 L 514 1190 L 515 1189 L 515 1185 L 516 1184 L 516 1182 L 517 1181 L 517 1180 L 518 1179 L 518 1178 L 520 1176 L 520 1175 L 543 1152 L 543 1151 L 547 1147 L 547 1146 L 549 1144 L 549 1143 L 552 1140 L 552 1139 L 554 1137 L 554 1136 L 555 1135 L 555 1134 L 556 1133 L 556 1132 L 557 1131 L 557 1130 L 558 1129 L 558 1128 L 559 1127 L 559 1125 L 560 1124 L 560 1122 L 561 1121 L 561 1120 L 562 1119 L 562 1116 L 563 1115 L 563 1112 L 564 1111 L 563 1111 L 558 1116 L 557 1116 L 556 1117 L 555 1117 L 554 1118 L 553 1118 L 552 1119 L 550 1119 L 549 1120 L 548 1120 L 547 1121 L 545 1121 L 544 1122 L 540 1122 L 539 1123 L 534 1123 L 533 1124 L 525 1124 L 524 1125 L 507 1125 L 506 1124 L 496 1124 L 495 1123 L 489 1123 L 488 1122 L 483 1122 L 482 1121 L 479 1121 L 478 1120 L 476 1120 L 475 1119 L 473 1119 L 472 1118 L 470 1118 L 469 1117 L 468 1117 L 467 1116 L 465 1116 L 464 1115 L 463 1115 L 461 1113 L 460 1113 L 457 1110 Z" fill="#000"/><path d="M 472 1015 L 471 1016 L 468 1016 L 467 1017 L 465 1017 L 464 1018 L 462 1018 L 461 1019 L 459 1019 L 458 1020 L 457 1020 L 456 1021 L 454 1021 L 453 1022 L 452 1022 L 451 1023 L 450 1023 L 448 1025 L 447 1025 L 446 1026 L 445 1026 L 443 1028 L 442 1028 L 441 1029 L 440 1029 L 438 1031 L 437 1031 L 436 1032 L 435 1032 L 434 1033 L 433 1033 L 432 1034 L 431 1034 L 430 1035 L 429 1035 L 428 1036 L 427 1036 L 426 1037 L 425 1037 L 424 1038 L 422 1038 L 421 1039 L 420 1039 L 419 1040 L 417 1040 L 416 1041 L 412 1041 L 411 1042 L 406 1042 L 405 1043 L 395 1043 L 394 1042 L 389 1042 L 388 1041 L 386 1041 L 385 1040 L 384 1040 L 383 1039 L 382 1039 L 381 1038 L 380 1038 L 374 1032 L 374 1031 L 373 1030 L 373 1029 L 372 1028 L 372 1020 L 369 1023 L 369 1024 L 368 1025 L 368 1026 L 367 1027 L 367 1028 L 366 1029 L 366 1040 L 367 1041 L 367 1044 L 368 1045 L 368 1047 L 369 1048 L 369 1049 L 370 1050 L 370 1051 L 371 1052 L 371 1053 L 372 1054 L 372 1055 L 373 1056 L 373 1057 L 376 1060 L 376 1061 L 388 1073 L 389 1073 L 392 1076 L 393 1076 L 395 1078 L 396 1078 L 397 1079 L 398 1079 L 400 1081 L 401 1081 L 402 1082 L 403 1082 L 404 1083 L 405 1083 L 406 1084 L 407 1084 L 408 1085 L 409 1085 L 410 1086 L 412 1086 L 413 1087 L 415 1087 L 416 1088 L 418 1088 L 419 1089 L 422 1089 L 423 1090 L 427 1090 L 428 1091 L 433 1091 L 434 1092 L 459 1092 L 460 1091 L 466 1091 L 467 1090 L 471 1090 L 472 1089 L 474 1089 L 475 1088 L 477 1088 L 478 1087 L 480 1087 L 481 1086 L 483 1086 L 484 1085 L 485 1085 L 486 1084 L 487 1084 L 488 1083 L 490 1083 L 492 1081 L 493 1081 L 495 1079 L 496 1079 L 498 1077 L 499 1077 L 509 1067 L 509 1066 L 510 1065 L 511 1065 L 512 1066 L 512 1067 L 515 1070 L 515 1071 L 520 1076 L 521 1076 L 525 1080 L 526 1080 L 528 1082 L 529 1082 L 530 1083 L 531 1083 L 532 1084 L 533 1084 L 534 1085 L 535 1085 L 536 1086 L 537 1086 L 538 1087 L 539 1087 L 540 1088 L 542 1088 L 543 1089 L 545 1089 L 546 1090 L 549 1090 L 550 1091 L 554 1091 L 555 1092 L 560 1092 L 561 1093 L 587 1093 L 588 1092 L 593 1092 L 594 1091 L 598 1091 L 599 1090 L 602 1090 L 603 1089 L 605 1089 L 606 1088 L 608 1088 L 609 1087 L 611 1087 L 612 1086 L 613 1086 L 614 1085 L 616 1085 L 617 1084 L 618 1084 L 619 1083 L 620 1083 L 622 1081 L 623 1081 L 624 1080 L 625 1080 L 627 1078 L 628 1078 L 631 1075 L 632 1075 L 638 1069 L 639 1069 L 643 1065 L 643 1064 L 647 1060 L 647 1059 L 649 1057 L 649 1056 L 650 1055 L 650 1054 L 652 1052 L 652 1051 L 653 1050 L 653 1049 L 654 1048 L 654 1046 L 655 1045 L 655 1043 L 656 1042 L 656 1040 L 657 1039 L 657 1029 L 656 1028 L 656 1026 L 655 1025 L 655 1024 L 652 1021 L 652 1020 L 651 1019 L 650 1020 L 651 1021 L 651 1028 L 650 1029 L 650 1030 L 648 1032 L 648 1033 L 643 1038 L 642 1038 L 640 1040 L 639 1040 L 638 1041 L 636 1041 L 635 1042 L 633 1042 L 632 1043 L 626 1043 L 625 1044 L 618 1044 L 617 1043 L 611 1043 L 610 1042 L 607 1042 L 606 1041 L 604 1041 L 603 1040 L 601 1040 L 600 1039 L 599 1039 L 598 1038 L 596 1038 L 595 1037 L 594 1037 L 593 1036 L 592 1036 L 591 1035 L 590 1035 L 589 1034 L 588 1034 L 587 1033 L 586 1033 L 585 1032 L 584 1032 L 582 1030 L 581 1030 L 580 1029 L 579 1029 L 578 1028 L 577 1028 L 576 1027 L 575 1027 L 574 1026 L 573 1026 L 571 1024 L 570 1024 L 569 1023 L 568 1023 L 567 1022 L 566 1022 L 565 1021 L 564 1021 L 563 1020 L 561 1020 L 560 1019 L 558 1019 L 557 1018 L 555 1018 L 554 1017 L 550 1017 L 549 1016 L 537 1016 L 536 1017 L 532 1017 L 531 1018 L 528 1018 L 527 1019 L 525 1019 L 524 1020 L 523 1020 L 522 1021 L 521 1021 L 520 1022 L 519 1022 L 512 1029 L 506 1023 L 505 1023 L 503 1021 L 502 1021 L 501 1020 L 500 1020 L 499 1019 L 498 1019 L 497 1018 L 496 1018 L 495 1017 L 492 1017 L 491 1016 L 489 1016 L 488 1015 Z" fill="#000"/><path d="M 485 329 L 484 330 L 473 330 L 472 331 L 466 331 L 465 332 L 460 332 L 459 333 L 455 333 L 454 334 L 451 334 L 450 335 L 447 335 L 446 336 L 444 336 L 443 337 L 441 337 L 440 338 L 438 338 L 437 339 L 435 339 L 434 340 L 432 340 L 431 341 L 430 341 L 429 342 L 427 342 L 426 343 L 425 343 L 424 344 L 423 344 L 422 345 L 420 345 L 419 346 L 418 346 L 417 347 L 416 347 L 415 348 L 414 348 L 413 349 L 412 349 L 411 350 L 410 350 L 409 351 L 408 351 L 406 353 L 405 353 L 403 355 L 402 355 L 401 356 L 400 356 L 397 359 L 396 359 L 394 361 L 393 361 L 390 364 L 389 364 L 384 369 L 383 369 L 369 383 L 369 384 L 365 388 L 365 389 L 362 392 L 362 393 L 360 395 L 360 396 L 358 398 L 358 399 L 356 401 L 356 402 L 355 403 L 355 404 L 354 405 L 354 406 L 353 407 L 353 408 L 352 409 L 352 410 L 351 411 L 351 412 L 350 413 L 350 414 L 349 415 L 349 417 L 348 418 L 348 420 L 347 421 L 347 422 L 346 423 L 346 426 L 345 427 L 345 428 L 344 429 L 344 432 L 343 433 L 343 437 L 342 438 L 342 444 L 341 445 L 341 470 L 342 471 L 342 476 L 343 477 L 343 480 L 344 481 L 344 484 L 345 485 L 344 486 L 343 486 L 342 485 L 339 485 L 338 484 L 334 484 L 333 483 L 325 483 L 324 482 L 307 482 L 306 483 L 300 483 L 299 484 L 295 484 L 294 485 L 291 485 L 290 486 L 287 486 L 286 487 L 285 487 L 284 488 L 282 488 L 281 489 L 279 489 L 278 490 L 277 490 L 276 491 L 275 491 L 274 492 L 273 492 L 272 493 L 270 493 L 269 494 L 268 494 L 267 495 L 266 495 L 264 497 L 263 497 L 261 499 L 260 499 L 258 501 L 257 501 L 254 504 L 253 504 L 238 519 L 238 520 L 236 522 L 236 523 L 233 526 L 233 527 L 231 529 L 231 530 L 230 531 L 230 532 L 229 533 L 229 534 L 228 535 L 228 536 L 227 537 L 227 538 L 226 539 L 226 541 L 225 542 L 225 544 L 224 545 L 224 547 L 223 548 L 223 550 L 222 551 L 222 556 L 221 557 L 221 578 L 222 579 L 222 584 L 223 585 L 223 588 L 224 589 L 224 591 L 225 592 L 225 594 L 226 595 L 226 597 L 227 598 L 227 599 L 228 600 L 228 601 L 229 602 L 229 603 L 230 604 L 230 605 L 232 607 L 232 608 L 234 610 L 234 611 L 237 614 L 237 615 L 246 624 L 247 624 L 250 627 L 251 627 L 252 628 L 253 628 L 255 630 L 257 630 L 258 631 L 259 631 L 260 632 L 261 632 L 262 633 L 264 633 L 265 634 L 268 634 L 269 635 L 272 635 L 273 636 L 277 636 L 278 637 L 280 637 L 279 636 L 278 636 L 277 635 L 276 635 L 275 634 L 274 634 L 270 630 L 269 630 L 258 619 L 258 618 L 255 615 L 255 614 L 253 612 L 253 611 L 252 610 L 252 609 L 251 608 L 251 607 L 250 606 L 250 605 L 249 604 L 249 602 L 248 601 L 248 599 L 247 598 L 247 594 L 246 593 L 246 588 L 245 587 L 245 574 L 246 573 L 246 567 L 247 566 L 247 563 L 248 562 L 248 560 L 249 559 L 249 558 L 250 557 L 250 555 L 251 554 L 251 553 L 252 552 L 252 551 L 253 550 L 253 549 L 254 548 L 254 547 L 256 545 L 256 544 L 258 542 L 258 541 L 262 537 L 262 536 L 275 523 L 276 523 L 278 521 L 279 521 L 281 519 L 282 519 L 284 517 L 285 517 L 286 516 L 287 516 L 288 515 L 289 515 L 290 514 L 291 514 L 292 513 L 293 513 L 294 512 L 295 512 L 296 511 L 297 511 L 298 510 L 299 510 L 300 509 L 302 509 L 303 508 L 305 508 L 306 507 L 308 507 L 309 506 L 313 506 L 314 505 L 317 505 L 318 504 L 326 504 L 327 503 L 343 503 L 344 504 L 352 504 L 353 505 L 357 505 L 358 506 L 361 506 L 361 505 L 362 504 L 362 502 L 363 501 L 363 500 L 364 499 L 364 498 L 365 497 L 365 496 L 366 495 L 366 494 L 368 492 L 368 491 L 370 489 L 370 488 L 374 484 L 374 483 L 387 470 L 388 470 L 390 468 L 391 468 L 393 466 L 394 466 L 396 464 L 397 464 L 399 462 L 400 462 L 401 461 L 402 461 L 403 460 L 404 460 L 405 459 L 406 459 L 407 458 L 409 458 L 410 457 L 411 457 L 412 456 L 415 456 L 416 455 L 409 455 L 408 456 L 400 456 L 399 457 L 396 457 L 395 458 L 392 458 L 391 459 L 389 459 L 388 460 L 386 460 L 385 461 L 384 461 L 383 462 L 381 462 L 380 463 L 379 463 L 377 465 L 376 465 L 375 466 L 374 466 L 373 467 L 372 467 L 370 469 L 369 469 L 365 473 L 364 473 L 363 474 L 362 473 L 362 456 L 363 455 L 363 451 L 364 450 L 364 446 L 365 445 L 365 443 L 366 442 L 366 440 L 367 439 L 367 437 L 368 436 L 368 435 L 369 434 L 369 432 L 370 431 L 370 430 L 371 429 L 371 428 L 372 427 L 372 426 L 373 425 L 373 424 L 374 423 L 374 422 L 376 420 L 376 419 L 377 418 L 377 417 L 378 416 L 378 415 L 380 413 L 380 412 L 382 410 L 382 409 L 386 405 L 386 404 L 403 387 L 404 387 L 408 383 L 409 383 L 412 380 L 413 380 L 414 379 L 415 379 L 417 377 L 418 377 L 420 375 L 421 375 L 422 374 L 423 374 L 424 373 L 425 373 L 426 372 L 427 372 L 428 371 L 429 371 L 430 370 L 431 370 L 432 369 L 433 369 L 434 368 L 435 368 L 436 367 L 438 367 L 439 366 L 440 366 L 441 365 L 443 365 L 444 364 L 446 364 L 447 363 L 449 363 L 450 362 L 452 362 L 453 361 L 456 361 L 457 360 L 460 360 L 461 359 L 465 359 L 466 358 L 472 358 L 473 357 L 506 357 L 507 358 L 514 358 L 515 359 L 519 359 L 520 360 L 523 360 L 524 361 L 527 361 L 528 362 L 530 362 L 531 363 L 534 363 L 535 364 L 537 364 L 538 365 L 539 365 L 540 366 L 542 366 L 543 367 L 544 367 L 545 368 L 546 368 L 547 369 L 549 369 L 550 370 L 551 370 L 552 371 L 553 371 L 554 372 L 555 372 L 556 373 L 557 373 L 558 374 L 559 374 L 560 375 L 561 375 L 563 377 L 564 377 L 565 378 L 566 378 L 569 381 L 570 381 L 572 383 L 573 383 L 577 387 L 578 387 L 595 404 L 595 405 L 598 408 L 598 409 L 601 412 L 601 413 L 603 415 L 603 416 L 605 418 L 605 419 L 606 420 L 606 421 L 607 422 L 607 423 L 608 424 L 608 425 L 609 426 L 609 427 L 610 428 L 610 430 L 611 431 L 611 433 L 612 434 L 612 436 L 613 437 L 613 439 L 614 440 L 614 443 L 615 444 L 615 447 L 616 447 L 617 446 L 618 446 L 620 444 L 622 444 L 623 443 L 625 443 L 626 442 L 628 442 L 629 441 L 631 441 L 632 440 L 635 440 L 636 439 L 638 439 L 639 438 L 643 438 L 644 437 L 649 437 L 650 436 L 674 436 L 675 437 L 681 437 L 682 438 L 686 438 L 687 439 L 691 439 L 692 440 L 695 440 L 696 441 L 698 441 L 699 442 L 702 442 L 703 443 L 705 443 L 706 444 L 707 444 L 708 445 L 710 445 L 711 446 L 712 446 L 713 447 L 714 447 L 715 448 L 717 448 L 718 449 L 719 449 L 720 450 L 721 450 L 722 451 L 723 451 L 724 452 L 725 452 L 726 453 L 727 453 L 729 455 L 730 455 L 732 457 L 733 457 L 734 458 L 735 458 L 737 460 L 738 460 L 740 462 L 741 462 L 745 466 L 746 466 L 750 470 L 751 470 L 763 482 L 763 483 L 769 489 L 769 490 L 772 493 L 772 494 L 773 495 L 773 496 L 775 498 L 775 499 L 777 501 L 777 502 L 778 503 L 778 504 L 780 506 L 780 507 L 781 508 L 781 509 L 782 510 L 782 511 L 783 512 L 783 513 L 784 514 L 784 515 L 785 516 L 785 518 L 786 519 L 786 520 L 787 521 L 787 523 L 788 524 L 788 525 L 789 526 L 789 528 L 790 529 L 790 531 L 791 532 L 791 536 L 792 537 L 792 541 L 793 542 L 793 547 L 794 548 L 794 564 L 793 565 L 793 571 L 792 572 L 792 576 L 791 577 L 791 579 L 790 580 L 790 583 L 789 584 L 789 586 L 788 587 L 788 589 L 787 590 L 787 591 L 786 592 L 786 593 L 785 594 L 785 595 L 784 596 L 784 597 L 782 599 L 782 600 L 781 601 L 781 602 L 779 604 L 779 605 L 777 607 L 777 608 L 774 611 L 774 612 L 761 625 L 760 625 L 756 629 L 755 629 L 753 631 L 752 631 L 750 633 L 749 633 L 747 635 L 746 635 L 745 636 L 744 636 L 743 637 L 742 637 L 741 638 L 740 638 L 739 639 L 738 639 L 737 640 L 736 640 L 735 641 L 733 641 L 732 642 L 731 642 L 730 643 L 728 643 L 727 644 L 724 644 L 723 645 L 721 645 L 720 646 L 717 646 L 716 647 L 714 647 L 714 648 L 719 648 L 720 649 L 722 649 L 723 650 L 722 651 L 722 652 L 721 653 L 721 656 L 720 657 L 720 658 L 719 659 L 719 661 L 718 662 L 718 664 L 717 665 L 717 667 L 716 668 L 716 670 L 715 671 L 715 673 L 714 674 L 714 675 L 713 676 L 713 678 L 712 679 L 712 680 L 711 681 L 711 683 L 710 684 L 710 686 L 709 687 L 709 688 L 708 689 L 708 691 L 707 692 L 707 694 L 706 695 L 706 697 L 705 698 L 705 700 L 704 701 L 704 702 L 703 703 L 703 705 L 702 706 L 702 708 L 701 709 L 701 711 L 700 712 L 700 714 L 699 715 L 699 716 L 698 717 L 698 719 L 697 720 L 697 722 L 696 723 L 696 725 L 695 726 L 695 728 L 694 729 L 694 731 L 693 732 L 693 733 L 692 734 L 692 736 L 691 737 L 691 739 L 690 740 L 690 742 L 689 743 L 689 744 L 688 745 L 688 747 L 687 748 L 687 750 L 686 751 L 686 752 L 685 753 L 685 755 L 684 756 L 684 758 L 683 759 L 683 761 L 682 762 L 682 764 L 681 765 L 681 766 L 680 767 L 680 769 L 679 770 L 679 772 L 678 773 L 678 775 L 677 776 L 677 777 L 676 778 L 676 780 L 675 781 L 675 783 L 674 784 L 674 786 L 673 787 L 673 788 L 672 789 L 672 791 L 671 792 L 671 794 L 669 796 L 668 796 L 667 797 L 665 797 L 664 798 L 662 798 L 661 799 L 659 799 L 658 800 L 656 800 L 655 801 L 652 801 L 651 802 L 649 802 L 648 803 L 645 803 L 644 804 L 641 804 L 640 805 L 637 805 L 636 806 L 634 806 L 633 807 L 629 807 L 628 808 L 625 808 L 624 809 L 621 809 L 620 810 L 617 810 L 616 811 L 613 811 L 612 812 L 608 812 L 607 813 L 603 813 L 602 814 L 598 814 L 597 815 L 593 815 L 592 816 L 588 816 L 587 817 L 583 817 L 582 818 L 577 818 L 576 819 L 572 819 L 571 820 L 565 820 L 564 821 L 558 821 L 557 822 L 551 822 L 550 823 L 545 823 L 544 824 L 537 824 L 536 825 L 530 825 L 529 826 L 520 826 L 519 827 L 510 827 L 509 828 L 496 828 L 495 829 L 430 829 L 429 828 L 415 828 L 414 827 L 406 827 L 405 826 L 398 826 L 397 825 L 391 825 L 390 824 L 384 824 L 384 825 L 385 825 L 386 826 L 387 826 L 388 827 L 390 827 L 391 828 L 393 828 L 394 829 L 395 829 L 396 830 L 398 830 L 399 831 L 401 831 L 402 832 L 403 832 L 404 833 L 407 833 L 408 834 L 410 834 L 411 835 L 414 835 L 415 836 L 418 836 L 419 837 L 422 837 L 423 838 L 427 838 L 428 839 L 433 839 L 434 840 L 438 840 L 439 841 L 444 841 L 445 842 L 451 842 L 452 843 L 461 843 L 462 844 L 514 844 L 515 843 L 522 843 L 523 844 L 522 845 L 518 845 L 517 846 L 511 846 L 510 847 L 503 847 L 502 848 L 492 848 L 491 849 L 478 849 L 477 850 L 449 850 L 448 849 L 435 849 L 434 848 L 429 848 L 428 847 L 424 847 L 423 846 L 419 846 L 418 845 L 415 845 L 414 844 L 411 844 L 410 843 L 407 843 L 406 842 L 405 842 L 404 841 L 402 841 L 401 840 L 400 840 L 399 839 L 397 839 L 396 838 L 395 838 L 394 837 L 392 837 L 391 836 L 390 836 L 389 835 L 388 835 L 386 833 L 385 833 L 384 832 L 383 832 L 381 830 L 380 830 L 379 829 L 378 829 L 377 828 L 376 828 L 375 827 L 374 827 L 372 825 L 371 825 L 369 823 L 368 823 L 367 822 L 366 822 L 365 821 L 363 821 L 362 820 L 348 820 L 347 821 L 344 821 L 343 822 L 341 822 L 340 823 L 339 823 L 338 824 L 337 824 L 336 825 L 335 825 L 334 826 L 333 826 L 332 827 L 331 827 L 329 829 L 328 829 L 327 830 L 326 830 L 322 834 L 321 834 L 313 842 L 313 843 L 308 848 L 308 849 L 306 851 L 306 852 L 304 854 L 304 855 L 302 857 L 302 858 L 301 859 L 301 860 L 300 861 L 300 862 L 299 863 L 299 865 L 298 866 L 298 868 L 297 869 L 297 871 L 296 872 L 296 875 L 295 876 L 295 879 L 294 880 L 294 886 L 293 887 L 293 905 L 294 906 L 294 912 L 295 913 L 295 917 L 296 918 L 296 921 L 297 922 L 297 924 L 298 925 L 298 927 L 299 928 L 299 930 L 300 931 L 300 932 L 301 933 L 301 935 L 302 936 L 302 937 L 304 939 L 304 940 L 305 941 L 305 942 L 307 944 L 307 945 L 308 946 L 308 947 L 309 948 L 309 941 L 308 940 L 308 927 L 309 926 L 309 918 L 310 917 L 310 912 L 311 911 L 311 908 L 312 907 L 312 905 L 313 904 L 313 902 L 314 901 L 314 899 L 315 898 L 315 897 L 316 896 L 316 894 L 317 893 L 317 892 L 318 891 L 318 890 L 320 888 L 320 887 L 321 886 L 321 885 L 323 883 L 323 882 L 326 879 L 326 878 L 332 872 L 333 872 L 338 867 L 339 867 L 340 866 L 341 866 L 343 864 L 344 864 L 345 863 L 347 863 L 348 862 L 350 862 L 351 861 L 355 861 L 356 862 L 354 864 L 353 864 L 352 865 L 351 865 L 349 867 L 348 867 L 346 869 L 345 869 L 334 880 L 334 881 L 331 884 L 331 885 L 329 887 L 329 888 L 328 889 L 328 890 L 326 892 L 326 893 L 325 894 L 325 895 L 324 896 L 324 897 L 323 898 L 323 900 L 322 901 L 322 902 L 321 903 L 321 905 L 320 906 L 320 909 L 319 910 L 319 914 L 318 915 L 318 920 L 317 921 L 317 941 L 318 942 L 318 949 L 319 950 L 319 954 L 320 955 L 320 957 L 321 958 L 321 961 L 322 962 L 322 964 L 323 965 L 323 966 L 324 967 L 324 969 L 325 970 L 325 971 L 326 972 L 326 973 L 327 974 L 327 975 L 329 977 L 329 978 L 331 980 L 331 981 L 332 982 L 332 983 L 336 987 L 336 988 L 347 999 L 348 999 L 350 1001 L 351 1001 L 351 1000 L 350 999 L 350 997 L 349 996 L 349 994 L 348 993 L 348 991 L 347 990 L 347 988 L 346 987 L 346 985 L 345 984 L 345 981 L 344 980 L 344 977 L 343 976 L 343 972 L 342 971 L 342 965 L 341 964 L 341 956 L 340 955 L 340 939 L 341 938 L 341 928 L 342 927 L 342 922 L 343 921 L 343 917 L 344 916 L 344 913 L 345 912 L 345 910 L 346 909 L 346 907 L 347 906 L 347 904 L 348 903 L 348 901 L 349 900 L 349 899 L 350 898 L 350 897 L 351 896 L 351 895 L 352 894 L 352 893 L 353 892 L 353 891 L 355 889 L 355 888 L 356 887 L 356 886 L 357 885 L 357 884 L 358 883 L 358 882 L 359 881 L 359 878 L 360 877 L 360 874 L 359 873 L 359 868 L 358 867 L 358 866 L 357 865 L 357 864 L 358 863 L 364 869 L 365 869 L 367 871 L 368 871 L 370 873 L 371 873 L 373 875 L 374 875 L 375 876 L 376 876 L 377 877 L 378 877 L 379 878 L 380 878 L 381 879 L 382 879 L 383 880 L 384 880 L 385 881 L 386 881 L 387 882 L 389 882 L 390 883 L 391 883 L 392 884 L 394 884 L 395 885 L 397 885 L 398 886 L 401 886 L 402 887 L 404 887 L 405 888 L 409 888 L 410 889 L 415 889 L 416 890 L 422 890 L 423 891 L 435 891 L 436 892 L 456 892 L 457 891 L 470 891 L 471 890 L 478 890 L 479 889 L 487 889 L 488 888 L 493 888 L 494 887 L 499 887 L 500 886 L 504 886 L 505 885 L 509 885 L 510 884 L 513 884 L 514 883 L 518 883 L 519 882 L 522 882 L 523 881 L 525 881 L 526 880 L 529 880 L 530 879 L 532 879 L 533 878 L 536 878 L 537 877 L 539 877 L 540 876 L 542 876 L 543 875 L 546 875 L 547 874 L 549 874 L 550 873 L 553 873 L 554 872 L 556 872 L 557 871 L 559 871 L 560 870 L 562 870 L 563 869 L 565 869 L 566 868 L 568 868 L 569 867 L 571 867 L 572 866 L 573 866 L 574 865 L 576 865 L 577 864 L 579 864 L 580 863 L 581 863 L 582 862 L 584 862 L 585 861 L 586 861 L 587 860 L 589 860 L 590 859 L 591 859 L 592 858 L 594 858 L 595 857 L 596 857 L 597 856 L 599 856 L 600 855 L 601 855 L 602 854 L 603 854 L 604 853 L 606 853 L 607 852 L 608 852 L 609 851 L 611 851 L 612 850 L 613 850 L 614 849 L 615 849 L 616 848 L 617 848 L 618 847 L 620 847 L 621 846 L 622 846 L 623 845 L 624 845 L 625 844 L 626 844 L 627 843 L 628 843 L 629 842 L 630 842 L 631 841 L 633 841 L 635 839 L 636 839 L 637 838 L 638 838 L 639 837 L 640 837 L 641 836 L 642 836 L 643 835 L 644 835 L 645 834 L 646 834 L 647 833 L 648 833 L 649 832 L 650 832 L 651 831 L 652 831 L 653 830 L 654 830 L 655 829 L 656 829 L 657 828 L 658 828 L 659 827 L 660 827 L 662 825 L 663 825 L 664 824 L 665 824 L 666 823 L 667 823 L 669 821 L 670 821 L 671 820 L 672 820 L 673 819 L 674 819 L 676 817 L 677 817 L 678 816 L 679 816 L 681 814 L 682 814 L 685 811 L 686 811 L 687 810 L 687 809 L 688 808 L 688 807 L 689 806 L 689 804 L 690 803 L 690 801 L 691 800 L 691 798 L 692 797 L 692 795 L 693 794 L 693 792 L 694 791 L 694 789 L 695 788 L 695 786 L 696 785 L 696 784 L 697 783 L 697 781 L 698 780 L 698 778 L 699 777 L 699 775 L 700 774 L 700 773 L 701 772 L 701 770 L 702 769 L 702 767 L 703 766 L 703 764 L 704 763 L 704 761 L 705 760 L 705 758 L 706 757 L 706 755 L 707 754 L 707 752 L 708 751 L 708 749 L 709 748 L 709 746 L 710 745 L 710 743 L 711 742 L 711 740 L 712 739 L 712 738 L 713 737 L 713 735 L 714 734 L 714 732 L 715 731 L 715 729 L 716 728 L 716 726 L 717 725 L 717 724 L 718 723 L 718 721 L 719 720 L 719 718 L 720 717 L 720 715 L 721 714 L 721 712 L 722 711 L 722 709 L 723 708 L 723 706 L 724 705 L 724 703 L 725 702 L 725 700 L 726 699 L 726 698 L 727 697 L 727 694 L 728 693 L 728 692 L 729 691 L 729 689 L 730 688 L 730 686 L 731 685 L 731 683 L 732 682 L 732 680 L 733 679 L 733 678 L 734 677 L 734 675 L 735 674 L 735 672 L 736 671 L 736 669 L 737 668 L 737 667 L 738 666 L 738 664 L 739 663 L 739 660 L 740 659 L 740 658 L 741 657 L 741 655 L 742 654 L 742 652 L 743 651 L 743 650 L 744 649 L 747 649 L 748 648 L 751 648 L 752 647 L 754 647 L 755 646 L 757 646 L 758 645 L 759 645 L 760 644 L 761 644 L 762 643 L 763 643 L 764 642 L 765 642 L 766 641 L 767 641 L 768 640 L 769 640 L 770 639 L 771 639 L 773 637 L 774 637 L 776 635 L 777 635 L 779 633 L 780 633 L 787 626 L 788 626 L 792 622 L 792 621 L 797 616 L 797 615 L 800 612 L 800 611 L 802 609 L 802 608 L 803 607 L 803 606 L 805 604 L 805 603 L 806 602 L 806 601 L 807 600 L 807 599 L 808 598 L 808 597 L 809 596 L 809 595 L 810 594 L 810 593 L 811 592 L 811 590 L 812 589 L 812 588 L 813 587 L 813 584 L 814 583 L 814 581 L 815 580 L 815 576 L 816 575 L 816 572 L 817 571 L 817 564 L 818 563 L 818 540 L 817 539 L 817 533 L 816 532 L 816 527 L 815 526 L 815 522 L 814 521 L 814 518 L 813 517 L 813 515 L 812 514 L 812 512 L 811 511 L 811 509 L 810 508 L 810 506 L 809 505 L 809 503 L 808 502 L 808 501 L 807 500 L 807 499 L 806 498 L 806 496 L 805 495 L 805 494 L 804 493 L 804 492 L 802 490 L 802 489 L 801 488 L 801 487 L 800 486 L 800 485 L 798 483 L 798 482 L 797 481 L 797 480 L 795 478 L 795 477 L 793 475 L 793 474 L 790 471 L 790 470 L 787 467 L 787 466 L 781 460 L 781 459 L 774 452 L 773 452 L 766 445 L 765 445 L 762 442 L 761 442 L 758 439 L 757 439 L 755 437 L 754 437 L 751 434 L 750 434 L 749 433 L 748 433 L 746 431 L 745 431 L 744 430 L 743 430 L 741 428 L 740 428 L 739 427 L 738 427 L 737 426 L 736 426 L 735 425 L 734 425 L 733 424 L 732 424 L 731 423 L 729 423 L 728 422 L 726 422 L 725 421 L 724 421 L 723 420 L 721 420 L 720 419 L 718 419 L 717 418 L 716 418 L 715 417 L 712 417 L 711 416 L 709 416 L 708 415 L 704 415 L 703 414 L 698 414 L 697 413 L 691 413 L 690 412 L 666 412 L 665 413 L 659 413 L 658 414 L 654 414 L 653 415 L 651 415 L 650 416 L 648 416 L 647 417 L 645 417 L 644 418 L 643 418 L 642 419 L 640 419 L 639 420 L 638 420 L 637 421 L 635 421 L 634 422 L 633 421 L 633 420 L 632 419 L 632 418 L 631 417 L 631 415 L 630 414 L 630 412 L 629 411 L 629 410 L 628 409 L 628 408 L 627 407 L 627 406 L 626 405 L 626 404 L 625 403 L 625 402 L 624 401 L 624 400 L 622 398 L 622 397 L 621 396 L 621 395 L 619 393 L 619 392 L 617 390 L 617 389 L 613 385 L 613 384 L 609 380 L 609 379 L 596 366 L 595 366 L 591 362 L 590 362 L 587 359 L 586 359 L 583 356 L 582 356 L 581 355 L 580 355 L 578 353 L 577 353 L 575 351 L 574 351 L 573 350 L 572 350 L 571 349 L 570 349 L 569 348 L 568 348 L 566 346 L 564 346 L 563 345 L 562 345 L 561 344 L 560 344 L 559 343 L 558 343 L 557 342 L 556 342 L 555 341 L 553 341 L 552 340 L 550 340 L 549 339 L 548 339 L 547 338 L 545 338 L 544 337 L 542 337 L 541 336 L 539 336 L 538 335 L 535 335 L 534 334 L 532 334 L 531 333 L 527 333 L 526 332 L 522 332 L 521 331 L 514 331 L 513 330 L 501 330 L 500 329 Z" fill="#000"/>
</svg>
